<?xml version="1.0"?>
<svg xmlns="http://www.w3.org/2000/svg" width="76" height="82" viewBox="0 0 76 82">
  <defs>
    <style>
      .cls-1 {
        fill: #dc0000;
        fill-rule: evenodd;
      }
    </style>
  </defs>
  <path class="cls-1" d="M65.486,17.041a7.149,7.149,0,0,0-4-6.438,6.378,6.378,0,0,0-6.16.419,2.632,2.632,0,0,0-2.238-2.471,108.8,108.8,0,0,0-30.173,0,2.632,2.632,0,0,0-2.238,2.471,6.375,6.375,0,0,0-6.16-.419,7.149,7.149,0,0,0-4,6.438c-0.358,6.538,7.391,12.615,11.115,15.535l0.18-.228h0l-0.178.229c0.445,0.348.819,0.642,1.095,0.872,0.075,0.063.209,0.17,0.388,0.312,4.022,3.189,4.987,4.614,5.2,5.179a1.027,1.027,0,0,1-.083,1.255,1.3,1.3,0,0,1-1.491-.8,1.445,1.445,0,0,0-2-.467,1.461,1.461,0,0,0-.465,2.005,4.344,4.344,0,0,0,3.666,2.23h0A3.541,3.541,0,0,0,29.53,42.8a3.318,3.318,0,0,0,1.559-1.667c0.569,0.689,1.168,1.408,1.8,2.167l0.625,11.617-4.459,1.268a2.636,2.636,0,0,0-1.849,3.028L27.5,60.7H24.6a2.358,2.358,0,0,0-2.35,2.36V72.14A2.358,2.358,0,0,0,24.6,74.5H51.4a2.358,2.358,0,0,0,2.35-2.36V63.065A2.358,2.358,0,0,0,51.4,60.7H48.5l0.293-1.493a2.636,2.636,0,0,0-1.849-3.028l-4.459-1.268L43.109,43.3c0.635-.759,1.234-1.477,1.8-2.166A3.322,3.322,0,0,0,46.47,42.8a3.548,3.548,0,0,0,1.58.365,4.344,4.344,0,0,0,3.667-2.23A1.451,1.451,0,1,0,49.256,39.4a1.3,1.3,0,0,1-1.492.8,1.028,1.028,0,0,1-.082-1.254c0.217-.565,1.183-1.989,5.2-5.179,0.18-.142.314-0.249,0.388-0.312,0.276-.23.65-0.523,1.1-0.873C58.095,29.656,65.844,23.579,65.486,17.041ZM25.147,71.589V63.616H50.853v7.972H25.147Zm33.03-51.817a1.459,1.459,0,0,0-.6-1.969,4.128,4.128,0,0,1-1.651-1.432,2.735,2.735,0,0,1,.861-2.821,3.462,3.462,0,0,1,3.5-.3A4.289,4.289,0,0,1,62.591,17.2c0.275,5.02-6.929,10.67-10.006,13.082-0.3.234-.567,0.445-0.8,0.631a40.219,40.219,0,0,0,2.838-11.637,9.073,9.073,0,0,0,1.592,1.1A1.449,1.449,0,0,0,58.177,19.772Zm-17.91,22.4-0.8,14.913L45.9,58.912,45.545,60.7H30.455L30.1,58.912l6.432-1.829-0.8-14.913-0.206-.246c-8.7-10.4-10.805-12.917-11.939-30.529a106.005,106.005,0,0,1,28.822,0c-1.133,17.611-3.231,20.12-11.917,30.5ZM13.409,17.2a4.288,4.288,0,0,1,2.307-3.947,3.72,3.72,0,0,1,1.541-.335,3.173,3.173,0,0,1,1.956.632,2.734,2.734,0,0,1,.861,2.821A4.133,4.133,0,0,1,18.421,17.8a1.454,1.454,0,0,0,1.363,2.57,9.1,9.1,0,0,0,1.592-1.1,40.222,40.222,0,0,0,2.842,11.64c-0.232-.186-0.5-0.4-0.8-0.633C20.339,27.87,13.134,22.221,13.409,17.2Z"/>
</svg>
