<?xml version="1.0" standalone="no"?>
<!DOCTYPE svg PUBLIC "-//W3C//DTD SVG 20010904//EN"
 "http://www.w3.org/TR/2001/REC-SVG-20010904/DTD/svg10.dtd">
<svg version="1.0" xmlns="http://www.w3.org/2000/svg"
 width="4096.000000pt" height="3072.000000pt" viewBox="0 0 4096.000000 3072.000000"
 preserveAspectRatio="xMidYMid meet">

<g transform="translate(0.000000,3072.000000) scale(0.100000,-0.100000)"
fill="#000000" stroke="none">
<path d="M0 15360 l0 -15360 20480 0 20480 0 0 15360 0 15360 -20480 0 -20480
0 0 -15360z m21425 10641 c228 -11 431 -24 725 -46 202 -15 291 -24 480 -44
52 -6 158 -17 235 -26 142 -15 215 -24 360 -45 44 -6 107 -15 140 -20 190 -27
335 -50 536 -84 150 -25 155 -27 249 -45 30 -6 147 -30 260 -52 113 -23 221
-45 240 -49 208 -46 283 -63 330 -75 30 -8 111 -28 180 -45 147 -36 340 -85
390 -100 19 -5 82 -23 140 -39 280 -78 664 -198 925 -289 166 -58 430 -154
470 -172 11 -4 45 -18 75 -29 73 -27 443 -177 494 -200 23 -10 79 -35 126 -56
176 -78 352 -160 560 -263 250 -123 481 -246 750 -400 36 -20 278 -166 363
-217 757 -464 1535 -1098 2075 -1691 413 -452 670 -793 939 -1244 184 -307
375 -700 472 -970 7 -19 17 -44 22 -55 14 -32 96 -283 119 -365 65 -231 92
-347 135 -575 121 -652 103 -1471 -45 -2090 -5 -22 -17 -71 -26 -110 -53 -230
-178 -617 -254 -790 -10 -22 -37 -85 -60 -140 -54 -128 -215 -449 -287 -574
-31 -53 -65 -111 -75 -130 -21 -37 -157 -251 -198 -312 -14 -20 -42 -63 -64
-95 -21 -33 -49 -72 -63 -89 -30 -38 -30 -39 -78 -105 -295 -410 -834 -984
-1264 -1345 -27 -22 -102 -85 -167 -140 -65 -56 -166 -137 -224 -180 -58 -44
-110 -84 -116 -90 -12 -11 -119 -90 -254 -187 -264 -191 -779 -518 -1045 -663
-27 -15 -54 -31 -60 -35 -5 -4 -59 -33 -120 -65 -60 -32 -115 -62 -120 -66
-13 -10 -591 -299 -598 -299 -3 0 -51 -22 -108 -49 -278 -130 -754 -328 -994
-414 -39 -14 -115 -42 -170 -62 -55 -20 -120 -43 -145 -51 -25 -8 -54 -19 -65
-24 -23 -10 -255 -87 -360 -120 -38 -12 -106 -33 -150 -47 -44 -14 -93 -29
-110 -33 -16 -5 -61 -18 -100 -30 -60 -18 -161 -47 -315 -90 -96 -26 -209 -56
-355 -94 -92 -24 -466 -111 -605 -141 -91 -20 -308 -64 -370 -75 -49 -10 -349
-63 -445 -80 -33 -6 -82 -15 -110 -20 -27 -5 -86 -14 -130 -20 -161 -23 -211
-30 -275 -40 -70 -11 -274 -36 -567 -70 -789 -91 -1772 -132 -2616 -110 -692
18 -1185 50 -1709 110 -294 34 -498 59 -568 70 -36 6 -94 14 -130 19 -36 5
-101 15 -145 21 -111 16 -308 50 -685 120 -101 18 -367 73 -487 100 -174 40
-465 109 -548 131 -289 77 -260 69 -435 118 -58 17 -136 39 -175 51 -38 12
-83 25 -100 30 -16 4 -67 20 -112 34 -46 14 -118 37 -160 50 -100 30 -322 105
-348 116 -11 5 -40 16 -65 24 -25 8 -90 31 -145 51 -55 20 -131 48 -170 62
-236 84 -736 293 -1004 419 -51 24 -96 44 -98 44 -7 0 -605 300 -618 309 -5 5
-55 32 -110 61 -55 29 -104 56 -110 60 -5 5 -32 20 -60 35 -268 147 -778 470
-1045 663 -135 97 -242 176 -254 187 -6 6 -58 46 -116 90 -58 43 -159 124
-224 180 -65 55 -140 118 -167 140 -158 133 -278 244 -483 449 -315 315 -590
630 -781 896 -48 66 -48 67 -78 105 -14 17 -42 56 -63 89 -22 32 -50 75 -64
95 -41 61 -177 275 -198 312 -10 19 -44 77 -75 130 -72 125 -233 446 -287 574
-23 55 -50 118 -60 140 -87 198 -207 581 -274 875 -135 589 -167 1196 -95
1815 13 106 57 383 70 440 48 201 91 373 109 435 22 78 104 330 119 365 5 11
16 38 24 60 8 22 37 92 63 155 558 1360 1690 2627 3246 3633 70 45 148 95 175
111 96 59 357 216 358 216 1 0 42 23 91 51 327 188 822 436 1224 614 47 21
103 46 126 56 51 23 421 173 494 200 62 24 83 31 125 49 264 108 991 345 1435
467 30 8 71 19 90 25 19 5 60 15 90 23 30 7 118 30 195 50 77 20 158 40 180
45 22 4 110 25 195 45 191 44 189 44 440 94 113 22 230 46 260 52 94 18 99 20
249 45 201 34 346 57 536 84 33 5 96 14 140 20 145 21 218 30 360 45 77 9 183
20 235 26 379 41 804 72 1250 89 151 6 289 12 305 14 57 7 1180 -4 1380 -13z
m15190 -17345 c198 -53 311 -204 303 -406 -3 -78 -7 -95 -42 -164 -45 -89 -90
-132 -186 -179 -60 -30 -72 -32 -165 -32 -97 0 -104 2 -177 38 -200 98 -280
333 -182 534 80 163 277 255 449 209z m-27375 -179 c157 -29 195 -38 284 -68
308 -103 556 -299 673 -534 92 -182 108 -422 43 -626 -64 -200 -204 -402 -383
-552 -45 -38 -86 -73 -91 -77 -5 -5 9 -30 32 -57 128 -154 187 -285 212 -469
13 -92 7 -156 -31 -364 -5 -30 -16 -93 -24 -140 -8 -47 -19 -111 -25 -142 -22
-123 -30 -168 -55 -313 -14 -82 -30 -175 -36 -205 -6 -30 -13 -73 -16 -95 -15
-107 -5 -105 -530 -105 -491 0 -483 -1 -483 66 0 19 4 54 9 77 5 23 17 85 26
137 8 52 20 119 25 148 6 28 15 77 20 107 6 30 14 79 20 108 41 226 90 517 90
538 0 99 -84 217 -190 266 -118 55 -69 53 -1270 53 -620 0 -1121 -4 -1129 -9
-7 -5 -18 -33 -23 -62 -5 -30 -15 -92 -23 -139 -8 -47 -19 -111 -25 -142 -5
-32 -14 -83 -20 -113 -5 -30 -15 -81 -20 -112 -6 -32 -17 -96 -25 -143 -14
-87 -28 -166 -45 -255 -6 -27 -15 -79 -20 -115 -29 -183 -63 -348 -76 -368 -8
-13 -26 -27 -40 -32 -35 -14 -889 -13 -914 0 -47 25 -47 28 29 450 23 124 46
252 52 285 12 73 25 142 38 215 5 30 17 98 26 150 9 52 20 115 25 140 5 25 20
113 35 195 27 162 42 244 55 315 5 25 13 72 19 105 6 33 31 173 56 311 24 137
50 281 56 320 6 38 14 89 19 114 17 91 29 157 44 245 8 50 20 116 26 148 5 31
15 82 20 112 6 30 15 81 20 113 6 31 17 95 25 142 8 47 19 112 25 145 6 33 15
87 21 119 15 88 32 112 92 127 17 4 766 6 1662 5 1453 -2 1639 -4 1715 -19z
m5943 16 c24 -3 44 -14 53 -28 17 -25 11 -69 -45 -375 -5 -25 -16 -92 -26
-150 -22 -134 -34 -162 -78 -183 -32 -16 -149 -17 -1464 -17 -1395 0 -1430 0
-1447 -19 -10 -11 -21 -43 -26 -73 -5 -29 -13 -84 -19 -123 -6 -38 -15 -90
-20 -115 -5 -25 -14 -72 -20 -105 -6 -33 -20 -111 -32 -173 -15 -88 -17 -117
-8 -128 10 -12 154 -14 965 -14 579 0 963 -4 978 -10 50 -18 50 -31 1 -302
-25 -139 -51 -282 -57 -318 -6 -36 -18 -73 -27 -83 -40 -48 -22 -47 -1036 -47
-894 0 -953 -1 -968 -17 -9 -11 -23 -62 -32 -123 -16 -98 -24 -147 -45 -260
-29 -157 -44 -261 -44 -300 l-1 -45 1446 -5 c1205 -4 1449 -7 1462 -19 29 -23
25 -56 -53 -488 -6 -32 -15 -85 -21 -118 -12 -70 -30 -102 -65 -115 -16 -6
-751 -10 -1950 -10 l-1924 0 -21 21 c-24 24 -25 9 16 244 25 146 34 194 55
313 6 31 17 95 25 142 8 47 19 111 25 143 40 219 47 261 75 422 14 83 30 175
36 205 5 30 16 91 24 135 8 44 19 106 24 138 26 140 32 170 56 312 25 145 33
190 55 313 6 31 17 95 25 142 8 47 19 111 25 143 5 31 15 82 20 112 6 30 15
81 20 113 6 31 17 95 25 142 7 47 15 96 18 110 6 29 23 116 37 193 5 28 21
122 36 208 15 85 32 163 40 173 33 46 -26 45 1969 45 1034 1 1897 -2 1918 -6z
m1625 -3 c19 -5 53 -26 76 -47 23 -21 83 -73 132 -115 49 -42 100 -86 114 -98
14 -12 65 -56 114 -98 49 -42 113 -97 141 -122 28 -25 91 -79 140 -120 48 -41
132 -113 185 -160 53 -47 136 -119 185 -160 49 -41 112 -95 140 -120 29 -25
96 -83 150 -130 54 -47 114 -100 134 -118 44 -39 72 -48 103 -31 12 7 181 117
373 244 381 253 723 478 1165 770 157 103 324 214 372 246 69 45 99 59 140 64
29 4 180 5 334 3 265 -3 283 -4 304 -23 24 -21 24 -46 0 -170 -5 -27 -21 -117
-35 -200 -14 -82 -30 -174 -35 -202 -13 -70 -24 -128 -54 -303 -63 -357 -78
-438 -87 -490 -6 -30 -15 -82 -20 -115 -6 -33 -14 -80 -19 -105 -5 -25 -15
-85 -24 -135 -8 -49 -20 -116 -26 -147 -5 -32 -15 -84 -20 -115 -6 -32 -17
-96 -25 -143 -8 -47 -19 -111 -25 -142 -30 -169 -36 -202 -74 -418 -14 -80
-38 -210 -52 -290 -14 -80 -30 -170 -35 -200 -5 -30 -13 -77 -19 -105 -16 -88
-31 -168 -45 -255 -8 -47 -17 -102 -21 -122 -3 -20 -17 -47 -31 -60 l-25 -23
-453 -3 -453 -3 -27 23 c-29 25 -29 15 5 201 5 31 14 81 19 110 6 28 22 120
36 202 27 154 37 212 56 313 6 31 17 93 24 137 7 44 21 121 30 170 9 50 25
142 36 205 26 146 35 200 69 388 6 31 17 95 25 142 13 79 22 127 45 255 46
248 45 292 -4 283 -12 -3 -181 -110 -376 -240 -531 -351 -939 -621 -1089 -720
-191 -125 -181 -126 -366 37 -103 91 -89 79 -191 165 -48 41 -113 98 -144 125
-31 28 -96 84 -145 125 -93 79 -389 335 -490 424 -93 81 -111 91 -140 76 -34
-18 -33 -17 -70 -240 -8 -47 -19 -111 -25 -142 -5 -32 -15 -84 -20 -115 -6
-32 -18 -98 -26 -148 -9 -49 -19 -110 -24 -135 -15 -81 -31 -174 -40 -225 -5
-27 -20 -115 -34 -195 -14 -80 -38 -210 -52 -290 -37 -213 -44 -248 -74 -417
-6 -32 -17 -96 -25 -143 -8 -47 -19 -111 -25 -142 -5 -32 -14 -84 -20 -115 -6
-39 -18 -65 -35 -83 l-25 -25 -452 -3 c-528 -3 -504 -7 -495 86 5 53 21 156
47 295 22 122 30 167 55 312 14 83 30 174 35 203 20 106 31 169 45 247 7 44
21 121 30 170 9 50 25 142 36 205 26 146 35 200 69 388 6 31 17 95 25 142 8
47 19 111 25 143 5 31 15 83 20 115 6 31 17 95 25 142 7 47 15 96 18 110 10
49 42 221 57 305 72 416 106 610 120 685 35 188 39 195 102 210 48 11 597 12
636 0z m9131 -14 c25 -23 27 -66 7 -169 -8 -40 -26 -139 -40 -222 -15 -82 -32
-179 -38 -215 -6 -36 -19 -73 -27 -84 -41 -48 26 -46 -1499 -46 -1170 0 -1431
-2 -1446 -13 -11 -8 -22 -34 -27 -63 -27 -160 -70 -407 -89 -509 -14 -69 -24
-155 -19 -157 2 -2 442 -5 977 -8 l974 -5 24 -28 c13 -16 22 -32 20 -36 -3 -4
-10 -34 -15 -67 -10 -56 -18 -105 -41 -231 -6 -32 -17 -96 -25 -143 -34 -209
-38 -219 -104 -238 -28 -9 -300 -12 -988 -12 -812 0 -952 -2 -962 -14 -7 -8
-19 -54 -26 -103 -8 -48 -19 -113 -24 -143 -9 -50 -48 -275 -71 -409 -7 -38
-6 -59 1 -68 9 -11 267 -13 1441 -13 1630 0 1494 8 1485 -83 -5 -49 -24 -164
-47 -289 -18 -100 -30 -166 -39 -220 -20 -113 -23 -120 -55 -139 -30 -18 -85
-19 -1956 -19 -2192 0 -1977 -10 -1966 89 3 31 10 79 15 106 5 28 16 91 24
140 9 50 23 131 32 180 9 50 25 142 36 205 26 146 35 200 69 388 6 31 17 95
25 142 7 47 25 146 39 220 14 74 30 167 37 205 6 39 14 90 19 115 17 92 29
157 38 215 6 33 22 125 36 205 14 80 38 210 52 290 30 172 41 231 54 305 24
129 30 168 55 310 14 83 30 175 36 205 5 30 17 96 25 145 17 99 28 160 39 218
8 40 41 71 85 80 14 2 883 4 1931 3 1860 -1 1907 -1 1928 -20z m3891 1 c47 -8
116 -23 154 -32 411 -96 733 -354 841 -670 21 -64 45 -197 45 -256 0 -42 -23
-205 -50 -351 -5 -32 -14 -83 -20 -113 -16 -90 -21 -117 -106 -595 -37 -213
-44 -248 -74 -417 -6 -32 -17 -96 -25 -143 -43 -270 -177 -499 -411 -704 -124
-109 -227 -176 -399 -261 -167 -81 -320 -131 -545 -177 -104 -22 -116 -22
-1562 -25 l-1456 -4 -27 24 -27 23 26 154 c28 160 38 218 56 318 6 31 17 95
25 142 8 47 19 111 25 143 5 31 15 82 20 112 6 30 15 81 20 113 6 31 17 95 25
142 8 47 19 111 25 143 24 131 31 175 41 232 5 33 27 157 49 275 22 118 44
242 49 275 10 57 17 101 41 233 6 31 17 95 25 142 8 47 19 111 25 143 5 31 15
82 20 112 6 30 15 81 20 113 6 31 17 95 25 142 8 47 19 111 25 143 16 91 27
154 49 277 11 63 27 155 35 203 21 120 35 142 99 158 17 4 667 6 1442 5 1246
-2 1420 -4 1495 -19z m2800 -2 c27 -24 25 -51 -15 -275 -15 -80 -31 -172 -37
-205 -12 -74 -23 -132 -37 -210 -7 -33 -18 -98 -26 -145 -8 -47 -19 -111 -25
-142 -27 -150 -30 -176 -24 -218 19 -134 156 -252 324 -279 86 -14 1351 -15
1440 -1 78 13 103 21 200 68 142 70 235 189 258 332 10 61 15 87 42 238 6 31
17 95 25 142 8 47 19 111 25 143 42 230 50 276 66 372 24 143 31 163 67 182
29 16 71 18 474 18 l443 0 25 -26 c29 -28 29 -12 -5 -199 -24 -129 -29 -161
-39 -224 -6 -39 -32 -183 -56 -320 -25 -138 -50 -280 -56 -316 -47 -273 -194
-525 -414 -707 -120 -99 -111 -92 -191 -145 -194 -127 -480 -242 -709 -284
-109 -20 -335 -44 -416 -44 -81 0 -94 -12 -108 -95 -10 -57 -18 -106 -41 -232
-6 -32 -17 -96 -25 -143 -8 -47 -19 -111 -25 -142 -21 -119 -61 -345 -110
-628 -18 -102 -37 -196 -43 -208 -24 -51 -33 -52 -510 -52 -339 0 -447 3 -459
13 -26 21 -36 49 -28 81 4 17 13 63 19 101 7 39 17 93 22 120 5 28 32 178 59
335 57 323 68 386 80 450 39 208 54 301 54 350 l1 45 -115 7 c-251 14 -481 58
-610 115 -124 55 -187 87 -238 120 -211 138 -337 296 -408 510 -30 93 -42 260
-26 368 15 93 38 236 52 308 22 122 30 167 55 312 14 83 30 174 35 203 27 145
31 170 36 202 12 78 39 112 95 123 13 3 216 4 450 3 412 -1 428 -2 449 -21z"/>
<path d="M20045 25099 c-583 -20 -908 -40 -1295 -78 -344 -35 -413 -42 -482
-51 -43 -6 -111 -14 -150 -19 -133 -17 -302 -41 -363 -50 -33 -5 -91 -14 -130
-20 -78 -12 -467 -79 -530 -91 -22 -5 -78 -15 -125 -24 -47 -8 -128 -24 -180
-36 -52 -11 -129 -27 -170 -36 -41 -8 -102 -21 -135 -29 -226 -53 -379 -90
-435 -105 -36 -10 -96 -26 -135 -35 -80 -19 -418 -113 -545 -152 -256 -77
-373 -115 -385 -125 -5 -4 938 -8 2095 -8 1272 0 2178 -4 2290 -10 479 -26
804 -50 1085 -79 315 -34 496 -56 730 -91 33 -5 105 -16 160 -24 154 -23 192
-30 475 -81 239 -44 483 -94 655 -135 50 -11 131 -30 180 -42 170 -39 700
-182 775 -208 14 -4 66 -20 115 -35 234 -70 858 -287 960 -335 11 -5 67 -27
124 -50 134 -53 357 -149 490 -211 57 -27 105 -49 107 -49 9 0 392 -194 508
-257 173 -94 339 -189 431 -246 44 -28 102 -64 130 -81 301 -187 624 -425 971
-716 117 -98 499 -481 594 -594 362 -433 568 -762 765 -1221 26 -62 113 -323
138 -415 69 -258 116 -608 117 -860 0 -165 -33 -478 -67 -640 -8 -41 -18 -86
-20 -100 -45 -231 -226 -702 -354 -921 -15 -26 -42 -73 -60 -105 -84 -153
-316 -484 -444 -633 -22 -26 -67 -78 -99 -117 -77 -89 -429 -441 -526 -524
-41 -36 -92 -81 -115 -100 -88 -78 -130 -111 -357 -281 -137 -104 -543 -379
-623 -423 -16 -9 -43 -25 -60 -35 -211 -132 -905 -494 -1100 -574 -33 -14
-117 -50 -186 -80 -137 -60 -481 -197 -541 -217 -37 -11 -60 -30 -38 -30 15 0
239 -88 382 -149 728 -313 1713 -996 2336 -1619 l103 -104 32 13 c61 24 313
132 385 165 41 19 75 34 77 34 14 0 530 254 711 351 467 247 1046 612 1394
877 131 101 292 227 325 255 17 14 64 54 106 89 370 308 761 708 1064 1088
100 126 118 151 206 275 80 113 113 162 192 288 18 28 45 71 60 94 15 24 27
45 27 47 0 2 19 37 43 78 57 97 173 327 231 458 26 58 51 114 56 125 38 82
146 392 184 525 64 232 94 371 136 630 38 238 51 739 26 1016 -80 887 -405
1726 -979 2524 -82 114 -214 287 -237 310 -3 3 -41 48 -85 100 -258 308 -555
605 -890 890 -48 41 -93 80 -99 85 -61 56 -430 338 -561 430 -67 47 -410 277
-451 302 -498 310 -1053 606 -1534 818 -58 25 -118 52 -135 60 -61 27 -352
148 -415 171 -36 13 -74 28 -85 34 -11 5 -76 30 -145 55 -69 26 -132 49 -140
52 -393 146 -1079 360 -1405 438 -38 9 -99 25 -135 35 -56 15 -209 52 -435
105 -33 8 -94 21 -135 29 -41 9 -118 25 -170 37 -52 11 -133 27 -180 36 -47 8
-103 18 -125 23 -67 13 -455 80 -530 91 -38 6 -97 15 -130 20 -61 9 -230 33
-362 50 -40 5 -108 13 -150 19 -70 9 -139 16 -483 51 -401 40 -705 58 -1345
79 -345 11 -622 11 -980 -1z"/>
<path d="M12158 21061 l-33 -29 0 -2557 0 -2557 33 -29 32 -29 181 0 181 0 29
29 c29 29 29 31 29 145 l0 116 227 0 227 0 141 -139 c77 -77 151 -142 165
-145 14 -4 1391 -5 3061 -4 2953 3 3037 4 3058 22 11 10 24 37 28 60 l9 41
109 7 c165 10 615 51 745 68 41 5 111 14 155 20 44 5 109 14 145 19 36 5 101
14 145 20 44 6 105 16 135 21 30 6 120 21 200 35 204 35 261 46 295 55 17 4
57 13 90 20 56 11 132 28 235 51 48 11 345 85 395 99 17 5 66 18 110 30 103
28 167 48 402 126 777 259 1398 596 1781 968 246 238 412 527 453 789 14 89 5
322 -15 392 -98 342 -275 586 -654 897 -56 45 -260 184 -367 249 -186 112
-503 269 -735 364 -36 14 -74 30 -85 34 -82 34 -286 108 -428 155 -140 46
-238 76 -452 136 -49 14 -414 105 -490 123 -247 57 -661 132 -945 172 -358 51
-513 69 -760 91 -200 17 -414 33 -447 34 -19 0 -23 6 -23 31 0 22 -10 41 -34
65 l-34 34 -3032 0 c-2197 0 -3037 -3 -3053 -11 -12 -6 -85 -74 -162 -150
l-141 -139 -224 2 -225 3 -2 105 c-4 134 -7 147 -46 170 -29 18 -51 20 -204
20 l-173 0 -32 -29z"/>
<path d="M12190 12766 c0 -20 673 -395 935 -520 50 -24 157 -76 238 -115 81
-39 150 -71 152 -71 2 0 37 -16 79 -35 95 -44 266 -117 376 -162 47 -18 99
-40 115 -47 17 -7 86 -34 155 -61 69 -26 134 -51 145 -55 11 -5 54 -20 95 -35
41 -15 93 -34 115 -42 184 -70 665 -225 960 -308 200 -57 265 -75 300 -84 22
-5 128 -32 235 -59 227 -57 353 -87 430 -103 30 -6 71 -15 90 -19 108 -24 609
-123 685 -135 50 -8 144 -23 210 -35 66 -11 167 -27 225 -35 58 -8 152 -21
210 -30 244 -35 381 -52 520 -66 58 -6 148 -15 200 -20 267 -27 400 -37 765
-59 454 -26 596 -30 1135 -30 539 0 681 4 1135 30 457 27 505 31 1218 107 32
3 59 9 61 12 4 5 -58 90 -291 401 -49 65 -117 150 -338 424 -81 100 -382 396
-494 484 -438 349 -820 513 -1371 591 -163 23 -219 30 -330 40 -63 6 -167 16
-230 23 -86 9 -1067 13 -3922 15 -2095 2 -3808 2 -3808 -1z"/>
<path d="M36440 8593 c-102 -38 -164 -89 -211 -175 -31 -58 -34 -70 -34 -148
1 -70 5 -95 27 -140 92 -195 346 -252 513 -115 69 56 124 170 125 256 0 53
-40 158 -80 208 -58 73 -161 121 -256 120 -38 0 -76 -3 -84 -6z m181 -133 c34
-15 59 -60 59 -104 0 -42 -46 -100 -87 -111 l-26 -6 36 -37 c38 -40 97 -132
97 -151 0 -8 -13 -11 -37 -9 -34 3 -40 8 -70 63 -46 82 -93 125 -137 125 l-35
0 -3 -92 -3 -93 -30 0 -30 0 -3 219 -2 219 123 -6 c68 -3 134 -11 148 -17z"/>
<path d="M36420 8355 l0 -65 70 0 c62 0 74 3 95 25 14 13 25 31 25 40 0 9 -11
27 -25 40 -21 22 -33 25 -95 25 l-70 0 0 -65z"/>
<path d="M6597 7722 c-9 -9 -20 -44 -26 -77 -6 -33 -15 -87 -21 -120 -6 -33
-15 -87 -20 -120 -5 -33 -14 -82 -19 -110 -5 -27 -15 -76 -20 -107 -6 -32 -16
-83 -23 -113 -20 -95 -138 -86 1146 -83 l1131 3 80 28 c108 38 172 77 240 144
177 174 145 415 -68 517 -121 58 -78 56 -1279 56 -1043 0 -1106 -1 -1121 -18z"/>
<path d="M27708 7728 c-9 -7 -18 -29 -21 -48 -3 -19 -11 -62 -17 -95 -6 -33
-17 -98 -25 -145 -8 -47 -19 -111 -25 -142 -40 -220 -47 -262 -75 -423 -14
-82 -30 -175 -36 -205 -5 -30 -16 -91 -24 -135 -8 -44 -18 -105 -24 -135 -21
-119 -43 -240 -62 -350 -22 -123 -33 -186 -49 -277 -6 -32 -18 -100 -26 -152
-8 -51 -17 -97 -19 -101 -3 -5 2 -16 11 -24 14 -15 101 -16 917 -14 l902 3 83
28 c140 47 245 121 304 211 39 61 53 98 69 192 5 30 13 78 18 107 6 28 22 120
36 202 14 83 30 174 35 203 20 106 31 169 45 247 7 44 21 121 30 170 9 50 25
142 36 205 11 63 25 140 30 170 44 244 38 287 -53 386 -52 56 -108 88 -199
114 -72 19 -98 20 -959 20 -694 0 -890 -3 -902 -12z"/>
</g>
</svg>
