<?xml version="1.0" standalone="no"?>
<!DOCTYPE svg PUBLIC "-//W3C//DTD SVG 20010904//EN"
 "http://www.w3.org/TR/2001/REC-SVG-20010904/DTD/svg10.dtd">
<svg version="1.0" xmlns="http://www.w3.org/2000/svg"
 width="2400.000000pt" height="2400.000000pt" viewBox="0 0 2400.000000 2400.000000"
 preserveAspectRatio="xMidYMid meet">
<metadata>
Created by potrace 1.16, written by Peter Selinger 2001-2019
</metadata>
<g transform="translate(0.000000,2400.000000) scale(0.100000,-0.100000)"
fill="#000000" stroke="none">
<path d="M11635 20083 c-1648 -42 -3253 -357 -4669 -917 -2470 -977 -4131
-2623 -4501 -4460 -184 -918 -55 -1837 380 -2705 451 -901 1217 -1720 2250
-2406 773 -513 1694 -944 2685 -1257 990 -312 2078 -515 3170 -593 694 -49
1489 -49 2180 0 3351 239 6280 1601 7695 3580 472 659 760 1382 845 2117 33
284 29 682 -9 979 -183 1413 -1128 2749 -2668 3772 -1930 1281 -4577 1961
-7358 1890z m-755 -1353 c859 -24 1577 -104 2359 -265 453 -93 850 -200 1298
-350 1440 -480 2564 -1209 3212 -2082 315 -424 507 -886 567 -1363 23 -183 16
-522 -15 -693 -89 -501 -293 -933 -655 -1387 -122 -153 -436 -469 -606 -610
-577 -480 -1278 -872 -2145 -1203 -22 -8 -38 -19 -35 -23 3 -5 70 -35 150 -66
589 -236 1316 -722 1853 -1238 104 -100 125 -125 112 -132 -26 -15 -319 -126
-510 -193 -728 -255 -1561 -455 -2393 -575 -207 -29 -187 -34 -262 68 -494
675 -796 969 -1195 1162 -263 128 -524 187 -1020 231 -80 7 -1096 13 -3020 18
l-2901 6 -204 136 c-1745 1161 -2586 2684 -2344 4246 138 892 638 1764 1431
2495 795 734 1795 1311 3028 1749 l220 78 1360 0 c748 1 1520 -4 1715 -9z"/>
<path d="M5685 16338 c-11 -6 -26 -18 -32 -26 -10 -13 -13 -419 -13 -1957 l0
-1942 23 -21 c22 -21 33 -22 168 -22 139 0 146 1 167 23 19 20 22 35 22 110
l0 87 168 0 167 0 110 -110 110 -110 2318 0 2318 0 24 25 c14 13 25 33 25 45
0 13 7 20 19 20 11 0 102 7 204 15 1912 155 3412 752 3785 1505 63 129 85 221
85 370 1 155 -15 225 -88 375 -65 132 -129 219 -251 341 -451 449 -1351 824
-2469 1028 -328 60 -800 120 -1100 141 -164 11 -185 15 -185 35 0 11 -11 32
-24 47 l-24 28 -2299 3 c-1264 1 -2309 0 -2323 -4 -13 -3 -74 -55 -135 -115
l-111 -109 -162 0 -162 0 0 84 c0 100 -4 112 -41 131 -34 18 -263 21 -294 3z"/>
<path d="M857 6758 c-24 -22 -39 -101 -266 -1398 -133 -757 -241 -1385 -241
-1397 0 -50 18 -53 375 -53 311 0 332 1 363 20 17 11 32 23 32 26 0 34 194
1082 202 1092 9 10 181 12 862 10 l851 -3 56 -23 c106 -43 178 -129 179 -213
0 -20 -31 -211 -70 -425 -38 -214 -70 -403 -70 -421 0 -62 6 -63 373 -63 347
0 378 4 391 47 3 10 39 207 81 439 50 278 75 445 75 495 0 141 -47 271 -139
390 l-49 63 41 38 c23 20 45 37 49 38 15 0 152 169 191 234 70 118 99 213 105
346 3 86 0 132 -12 180 -75 302 -385 533 -791 589 -51 7 -493 11 -1320 11
l-1244 0 -24 -22z m2385 -586 c188 -76 221 -264 72 -407 -50 -48 -145 -98
-214 -114 -29 -7 -344 -11 -892 -11 l-848 0 0 23 c0 49 88 507 100 522 12 14
102 15 869 13 l856 -3 57 -23z"/>
<path d="M5030 6762 c-21 -17 -44 -134 -271 -1411 -136 -765 -246 -1398 -243
-1406 3 -7 17 -18 32 -24 19 -8 438 -11 1484 -9 l1457 3 23 22 c18 18 28 59
60 240 41 234 45 282 26 301 -9 9 -264 12 -1087 12 -592 0 -1086 3 -1098 6
-15 4 -23 14 -23 28 0 54 90 520 102 527 7 5 343 9 746 9 l733 0 22 23 c18 18
29 64 66 270 42 234 43 249 27 265 -15 16 -74 17 -752 20 -607 2 -736 5 -740
16 -6 15 82 525 92 535 3 3 502 8 1110 11 1087 5 1104 5 1123 25 15 16 29 74
62 268 40 239 41 248 24 267 -18 20 -34 20 -1485 20 -1407 0 -1469 -1 -1490
-18z"/>
<path d="M8675 6758 c-25 -22 -34 -72 -265 -1388 -132 -751 -242 -1375 -245
-1388 -4 -15 2 -30 19 -47 l25 -25 330 0 c345 0 369 3 390 44 6 11 81 417 167
901 113 640 160 883 171 892 10 8 22 9 33 3 9 -5 220 -185 470 -399 377 -325
458 -391 483 -391 20 0 63 22 131 67 617 408 1094 720 1108 726 9 3 21 0 27
-7 7 -9 -35 -265 -144 -877 -85 -475 -155 -879 -155 -896 0 -63 6 -64 389 -61
326 3 341 4 359 23 15 16 67 292 267 1413 238 1339 247 1394 230 1412 -17 19
-33 20 -272 20 l-254 0 -766 -505 c-421 -278 -771 -505 -778 -505 -7 0 -246
201 -532 448 -285 246 -548 473 -586 505 l-67 57 -255 0 c-249 0 -254 0 -280
-22z"/>
<path d="M13146 6758 c-24 -22 -36 -86 -266 -1393 -132 -753 -240 -1382 -240
-1397 0 -62 -97 -58 1508 -56 1446 3 1462 3 1481 23 16 16 30 76 66 268 44
236 46 250 29 268 -16 18 -51 19 -1110 21 -601 2 -1096 6 -1099 10 -10 10 81
527 96 544 10 12 130 14 740 14 748 0 772 1 783 39 3 9 24 123 48 254 45 253
45 265 -3 278 -13 4 -347 7 -741 8 -449 1 -719 5 -723 11 -8 13 83 521 97 537
8 11 215 13 1103 13 1032 0 1094 1 1115 18 18 15 28 53 66 252 49 265 50 273
28 294 -14 14 -162 16 -1484 16 l-1469 0 -25 -22z"/>
<path d="M16796 6758 c-23 -22 -37 -94 -265 -1395 -133 -755 -241 -1383 -241
-1397 0 -59 -51 -56 1078 -56 1198 0 1227 2 1480 85 390 130 682 391 771 690
11 39 68 338 126 666 127 721 130 769 55 936 -113 250 -370 420 -725 478 -75
13 -266 15 -1172 15 l-1082 0 -25 -22z m2104 -585 c110 -45 169 -120 170 -216
0 -60 -195 -1167 -217 -1227 -20 -58 -111 -148 -183 -182 -114 -53 -114 -53
-832 -53 -366 0 -669 3 -673 7 -9 9 284 1669 297 1686 9 10 148 12 697 10 683
-3 686 -3 741 -25z"/>
<path d="M20460 6762 c-20 -16 -30 -64 -96 -447 -93 -543 -95 -607 -19 -770
130 -282 456 -462 873 -482 75 -4 126 -11 132 -18 6 -8 -22 -185 -85 -541 -53
-291 -93 -538 -91 -550 10 -40 41 -44 375 -44 326 0 372 5 391 40 5 9 50 254
100 544 50 290 94 534 97 542 7 19 25 22 163 28 436 20 859 229 1076 533 48
66 106 183 123 248 13 51 151 855 151 883 0 51 -5 52 -375 52 -342 0 -344 0
-369 -22 -24 -21 -31 -52 -101 -447 -46 -256 -83 -438 -95 -460 -26 -52 -116
-133 -180 -163 -102 -48 -128 -50 -705 -46 l-540 3 -63 29 c-95 44 -152 120
-152 202 0 21 32 224 70 452 67 392 70 415 54 433 -16 18 -37 19 -364 19 -320
0 -350 -1 -370 -18z"/>
</g>
</svg>
